# xmcd
# Track frame offsets:
# 150
# 18795
# 44097
# 66285
# 88412
# 113510
# 133950
# 152447
# 175025
# 196972
# 218382
# 243665
# 267640
#
# Disc length: 4032 seconds
# Revision: 0
# Processed by: cddbd v1.4PL0 Copyright (c) Steve Scherf et al.
# Submitted via: VisiTrax 2.9.5.181 - For more info visit www.synapsa.com
#
DISCID=b70fbe0d
DTITLE=Gerald Levert - G.
DYEAR=1998
DGENRE=R&B
TTITLE0=Application (I'm Lookin 4 a New Love)
TTITLE1=Callin Me
TTITLE2=Nothin To Somethin
TTITLE3=Strings, Strings
TTITLE4=It Hurts Too Much to Stay
TTITLE5=Mr. Too Damn Good
TTITLE6=She Done Been
TTITLE7=Heart Don't
TTITLE8=Don't Take It Away
TTITLE9=Second Time Around
TTITLE10=Misery
TTITLE11=Baby U Are
TTITLE12=These
EXTD=
EXTT0=
EXTT1=
EXTT2=
EXTT3=
EXTT4=
EXTT5=
EXTT6=
EXTT7=
EXTT8=
EXTT9=
EXTT10=
EXTT11=
EXTT12=
PLAYORDER=
